<?xml version="1.0" encoding="UTF-8"?>
<svg id="Layer_1" xmlns="http://www.w3.org/2000/svg" version="1.1" viewBox="0 0 789.63 569.71">
  <!-- Generator: Adobe Illustrator 30.0.0, SVG Export Plug-In . SVG Version: 2.1.1 Build 123)  -->
  <defs>
    <style>
      .st0 {
        fill: #e8ae24;
      }

      .st1 {
        fill: #fff;
      }

      .st2 {
        fill: #2a7054;
      }
    </style>
  </defs>
  <path class="st0" d="M659.83,153.41c12.33,21.52,21.79,43.64,28.39,66.37,13.04,44.91,15.75,90.52,8.12,136.81-.18,1.1-1.13,1.91-2.24,1.92l-8.39.07c-1.09.03-1.98-.07-2.67-.29-.58-.19-.94-.76-.84-1.36,8.73-54.01,3.95-105.14-14.34-153.37-19.93-52.54-53.91-97.7-98.76-131.33C480.11,5.5,360.26-4.6,261.54,46.23c-70.49,36.3-123.27,99.37-146.45,175.24-13.29,43.52-16.02,88.67-8.18,135.46.12.75-.38,1.45-1.13,1.57-.04,0-.09.01-.13.02-2.45.16-5.17.21-8.15.15-2.54-.05-4.4.32-4.84-2.39-7.47-45.45-4.95-90.27,7.56-134.48,6.67-22.99,15.84-44.96,27.53-65.91,28.54-49.79,67.23-88.54,116.08-116.27C290.71,13.01,342.4-.2,398.91,0c4.37.01,10.6.32,18.68.93,101.39,7.58,191.46,65.07,242.24,152.48Z"/>
  <path class="st2" d="M394.45,33.73c4.98,0,9.11-.22,13.28.24,7.89.87,17.98.84,25.66,2.4,4.79.97,9.7,1.33,15.26,2.5,58.37,12.29,107.55,40.25,147.53,83.9,30.65,33.46,52.45,74.58,63.11,118.78,9.27,38.43,10.12,77.68,2.56,117.77-.24,1.29-1.32,2.25-2.62,2.35-3.72.29-6.58.57-8.57.83-27.59,3.6-55.34,9.47-83.24,17.6-50.22,14.64-98.61,37.85-137.91,71.53-12.25,10.49-23.69,22.21-34.33,35.15-.11.14-.34.21-.67.21-.33,0-.56-.07-.68-.21-10.64-12.94-22.08-24.65-34.33-35.14-39.31-33.67-87.71-56.87-137.93-71.49-27.91-8.13-55.66-13.99-83.25-17.58-1.99-.26-4.85-.54-8.57-.83-1.3-.1-2.38-1.06-2.62-2.35-7.57-40.09-6.73-79.34,2.53-117.77,10.65-44.2,32.44-85.33,63.08-118.8,39.97-43.65,89.14-71.63,147.51-83.94,5.55-1.17,10.46-1.53,15.25-2.5,7.68-1.56,17.77-1.53,25.66-2.41,4.17-.46,8.3-.24,13.29-.24ZM487.42,192.35c2.11-6.03,3.93-13.01,5.48-20.95,1.74-8.95,1.79-16.94,1.49-25.62-.11-2.98-.8-6.54-2.09-10.69-2.53-8.17-7.36-13.88-14.51-17.13-16.73-7.62-39.16,3.07-53.42,12.3-10.78,6.97-21.11,15.11-31,24.41-.84.79-2.15.82-3.03.07-11.85-10.09-24.44-18.52-37.78-25.28-8.58-4.35-16.29-7.13-23.13-8.34-6.49-1.15-11.17-1.59-14.02-1.3-12.22,1.24-21.12,8.09-24.39,19.66-.99,3.49-1.55,5.99-1.68,7.49-1.58,17.51,2.83,34.68,9.31,50.51.27.66-.04,1.41-.7,1.68-.01,0-.03.01-.04.02-12.82,4.81-24.32,11.7-34.51,20.69-2.5,2.21-4.22,4.45-6.74,7.75-.98,1.29-2.26,2.33-3.72,3.01-.89.41-2.01.88-3.36,1.39-10.5,3.96-11.6,21.78-.84,26.43.45.19,1.64.76,3.56,1.7.63.32,1.18.78,1.6,1.35,2.39,3.27,3.6,4.91,3.61,4.93,3.48,4.7,8.94,9.56,14.46,13.02,9.07,5.67,18.4,10.09,27.99,13.26,1.02.34,1.59,1.43,1.28,2.47-2.48,8.27-5.03,17.35-5.84,25.82-.28,2.95-.6,5.91-.95,8.86-.31,2.63-.31,5.58.02,8.87.46,4.68.84,7.63,1.15,8.84,2.87,11.32,9.47,20.51,21.3,22.68,5.64,1.04,10.79,1.01,15.45-.09,23-5.42,41.03-18.79,60.07-35.33.97-.84,2-1.94,3.09-3.31.66-.83,1.87-.97,2.7-.31,0,0,.01.01.02.02,11.71,9.61,24.03,18.14,37.52,25.22,7.21,3.78,16.02,6.99,22.99,8.74,5.85,1.47,17.14,1.92,23.58-.75,3.81-1.58,6.57-3.23,8.26-4.96,6.09-6.21,9.21-13.78,9.37-22.69.14-7.37-.16-13.36-.9-17.97-.39-2.45-1.52-7.44-3.37-14.98-1.28-5.2-3.77-10.63-5.26-15.6-.15-.49.12-1.01.61-1.19,14.29-5.12,27.88-13.25,38.08-24.22,1.88-2.03,4.3-5.6,7.25-10.72.23-.39.53-.74.88-1.03.31-.24,1.44-1,3.39-2.29,3.71-2.44,6.06-5.94,7.06-10.49,1.34-6.13-2.45-12.75-7.46-16.06-.35-.24-.74-.4-1.16-.49-3.47-.75-6.48-1.14-8.27-3.12-5.04-5.55-10.83-10.25-17.37-14.1-8.4-4.93-16.9-8.66-25.51-11.18-.41-.12-.65-.55-.53-.96,0-.01,0-.03.01-.04Z"/>
  <path class="st1" d="M487.42,192.35c-.14.4.07.84.48.99.01,0,.03,0,.04.01,8.61,2.52,17.11,6.25,25.51,11.18,6.54,3.85,12.33,8.55,17.37,14.1,1.79,1.98,4.8,2.37,8.27,3.12.42.09.81.25,1.16.49,5.01,3.31,8.8,9.93,7.46,16.06-1,4.55-3.35,8.05-7.06,10.49-1.95,1.29-3.08,2.05-3.39,2.29-.35.29-.65.64-.88,1.03-2.95,5.12-5.37,8.69-7.25,10.72-10.2,10.97-23.79,19.1-38.08,24.22-.49.18-.76.7-.61,1.19,1.49,4.97,3.98,10.4,5.26,15.6,1.85,7.54,2.98,12.53,3.37,14.98.74,4.61,1.04,10.6.9,17.97-.16,8.91-3.28,16.48-9.37,22.69-1.69,1.73-4.45,3.38-8.26,4.96-6.44,2.67-17.73,2.22-23.58.75-6.97-1.75-15.78-4.96-22.99-8.74-13.49-7.08-25.81-15.61-37.52-25.22-.82-.67-2.03-.55-2.7.27,0,0-.01.01-.02.02-1.09,1.37-2.12,2.47-3.09,3.31-19.04,16.54-37.07,29.91-60.07,35.33-4.66,1.1-9.81,1.13-15.45.09-11.83-2.17-18.43-11.36-21.3-22.68-.31-1.21-.69-4.16-1.15-8.84-.33-3.29-.33-6.24-.02-8.87.35-2.95.67-5.91.95-8.86.81-8.47,3.36-17.55,5.84-25.82.31-1.04-.26-2.13-1.28-2.47-9.59-3.17-18.92-7.59-27.99-13.26-5.52-3.46-10.98-8.32-14.46-13.02-.01-.02-1.22-1.66-3.61-4.93-.42-.57-.97-1.03-1.6-1.35-1.92-.94-3.11-1.51-3.56-1.7-10.76-4.65-9.66-22.47.84-26.43,1.35-.51,2.47-.98,3.36-1.39,1.46-.68,2.74-1.72,3.72-3.01,2.52-3.3,4.24-5.54,6.74-7.75,10.19-8.99,21.69-15.88,34.51-20.69.67-.25,1.01-.99.76-1.66,0-.01-.01-.03-.02-.04-6.48-15.83-10.89-33-9.31-50.51.13-1.5.69-4,1.68-7.49,3.27-11.57,12.17-18.42,24.39-19.66,2.85-.29,7.53.15,14.02,1.3,6.84,1.21,14.55,3.99,23.13,8.34,13.34,6.76,25.93,15.19,37.78,25.28.88.75,2.19.72,3.03-.07,9.89-9.3,20.22-17.44,31-24.41,14.26-9.23,36.69-19.92,53.42-12.3,7.15,3.25,11.98,8.96,14.51,17.13,1.29,4.15,1.98,7.71,2.09,10.69.3,8.68.25,16.67-1.49,25.62-1.55,7.94-3.37,14.92-5.48,20.95ZM398.13,160.27c-.16.32-.09.71.18.94,6.53,5.8,12.78,11.83,18.76,18.08,1.39,1.45,2.7,2.17,4.87,2.26,19.35.82,38.42,3.79,57.2,8.92.69.2,1.42-.19,1.65-.87,4.01-11.72,6.41-23.82,7.19-36.29.36-5.87-.47-11.48-2.48-16.83-9.58-25.44-40.69-10.76-55.99-1.02-10.69,6.79-20.82,14.64-30.41,23.53-.39.35-.72.78-.97,1.28ZM386.06,160.78c-.28-.48-.63-.89-1.04-1.22-10.1-8.32-20.68-15.56-31.75-21.73-15.85-8.83-47.78-21.69-55.87,4.28-1.7,5.47-2.2,11.12-1.5,16.95,1.51,12.42,4.61,24.37,9.31,35.84.27.66,1.01,1,1.69.77,18.46-6.22,37.33-10.3,56.62-12.24,2.16-.22,3.43-1.02,4.73-2.54,5.61-6.59,11.51-12.98,17.69-19.16.25-.25.3-.64.12-.95ZM392.46,165.83c-.36-.33-.93-.31-1.26.06,0,0,0,0,0,0l-12.68,14.03c-.33.36-.31.93.06,1.26.16.15.38.23.6.23h28.22c.49,0,.89-.41.88-.9,0-.25-.11-.49-.29-.65l-15.53-14.03ZM392.89,188.06c-7.83.23-14.81.62-20.93,1.15-1.09.1-2.1.63-2.8,1.47-13.31,16.07-25.34,33.25-36.11,51.55-.67,1.14-.99,2.06-.97,2.75.02.7.4,1.6,1.14,2.7,11.83,17.63,24.86,34.06,39.1,49.31.75.8,1.78,1.27,2.88,1.3,6.15.17,13.14.13,20.97-.1s14.81-.61,20.93-1.14c1.09-.1,2.1-.63,2.8-1.47,13.31-16.07,25.34-33.25,36.11-51.55.67-1.15,1-2.07.98-2.76-.02-.69-.4-1.59-1.14-2.69-11.83-17.63-24.87-34.06-39.11-49.31-.74-.8-1.78-1.28-2.88-1.31-6.14-.17-13.13-.13-20.97.1ZM461.12,233.42c.27.19.65.11.84-.17.01-.02.02-.03.03-.05,6.01-11.37,11.2-22.81,15.59-34.3.27-.71-.08-1.5-.79-1.77-.03-.01-.07-.03-.11-.04-15.8-4.69-32.52-6.91-49.24-8.62-.31-.03-.58.19-.62.5,0,.03,0,.06,0,.08,0,.38.19.77.55,1.18,12.68,14.63,23.84,29,33.49,43.11h.02c.14.04.22.07.24.08ZM327.48,237.57s.1-.04.24-.09h.01c8.79-14.72,19.09-29.78,30.89-45.2.33-.43.49-.84.48-1.22-.01-.31-.27-.56-.58-.55-.03,0-.05,0-.08,0-16.63,2.73-33.23,5.98-48.76,11.64-.72.26-1.09,1.05-.83,1.76.01.03.03.07.04.1,5.09,11.24,11,22.37,17.71,33.38.18.29.55.38.83.2.02-.01.03-.02.05-.03ZM488.56,281.03c2.9-1.5,6.12-3.06,9.66-4.69,10.92-5,23.23-13.47,29.79-23.78.51-.8.27-1.85-.53-2.36-.1-.06-.21-.12-.32-.16-3.95-1.47-6.74-4.26-8.35-8.37-2.78-7.08-.58-12.91,4.46-18.18.5-.53.55-1.34.11-1.92-1.87-2.48-4.12-4.64-6.77-6.47-9.32-6.45-19.32-11.46-30.01-15.03-.98-.33-2.05.19-2.4,1.16-4.84,13.36-10.7,26.12-17.58,38.28-.5.9-.47,2,.08,2.86,7.75,12.19,14.6,24.92,20.56,38.2.21.48.77.7,1.25.48.02,0,.03-.01.05-.02ZM263.1,230.3c-.3.33-.28.84.05,1.14.03.02.05.05.08.07,5.31,3.71,9.91,9.93,8.18,16.61-1.63,6.27-4.03,7.87-8.88,11.63-.51.4-.61,1.12-.22,1.64,1.23,1.65,2.44,3.03,3.61,4.14,7.34,6.94,15.52,12.1,25.09,16.11,1.72.72,5.43,2.29,11.13,4.72.94.4,2.03-.04,2.43-.98,0-.02.02-.04.02-.06,4.89-12.59,10.93-25.68,18.12-39.25.34-.65.31-1.43-.09-2.03-7.68-11.79-14.46-24.3-20.33-37.53-.34-.77-1.23-1.13-2.01-.82-14.37,5.68-26.66,13.23-37.18,24.61ZM461.62,248.8s-.1.04-.24.09h-.01c-8.75,14.67-18.99,29.69-30.73,45.06-.33.43-.49.83-.48,1.21,0,.31.26.55.57.55.03,0,.06,0,.09,0,16.56-2.74,33.1-5.99,48.56-11.64.72-.26,1.09-1.05.83-1.76-.01-.03-.02-.06-.04-.09-5.09-11.19-10.98-22.27-17.68-33.24-.18-.28-.55-.37-.83-.19-.01,0-.02.02-.04.02ZM327.99,252.86c-.28-.18-.65-.1-.84.18,0,.01-.02.03-.02.04-6.04,11.38-11.26,22.82-15.67,34.33-.27.71.08,1.5.79,1.77.03.01.07.03.11.04,15.82,4.71,32.56,6.96,49.3,8.69.31.03.58-.19.62-.5,0-.03,0-.06,0-.08,0-.37-.19-.77-.55-1.18-12.68-14.67-23.84-29.07-33.48-43.21h-.01c-.15-.04-.23-.07-.25-.08ZM403.06,325.63c.28.48.63.89,1.04,1.22,10.12,8.31,20.72,15.55,31.81,21.7,15.88,8.81,47.86,21.62,55.91-4.38,1.69-5.47,2.18-11.13,1.47-16.97-1.53-12.43-4.65-24.38-9.37-35.85-.27-.67-1.02-1-1.7-.77-18.46,6.25-37.34,10.37-56.64,12.35-2.16.22-3.43,1.02-4.73,2.55-5.61,6.61-11.5,13.01-17.67,19.2-.25.25-.3.64-.12.95ZM391.07,325.88c.16-.32.09-.71-.18-.94-6.54-5.79-12.81-11.81-18.81-18.04-1.39-1.45-2.71-2.16-4.88-2.25-19.37-.77-38.45-3.69-57.24-8.78-.69-.2-1.42.19-1.65.88-3.99,11.73-6.35,23.84-7.1,36.32-.35,5.87.49,11.48,2.52,16.83,9.65,25.42,40.74,10.66,56.02.88,10.67-6.83,20.79-14.7,30.36-23.62.39-.36.71-.79.96-1.28ZM410.28,304.99h-28.49c-.33,0-.6.26-.61.59,0,.12.04.24.11.35,1.07,1.55,1.98,2.65,2.72,3.28,4.04,3.51,7.93,7.09,11.68,10.75.44.43,1.15.42,1.58-.01l13.58-13.58c.31-.32.31-.83,0-1.15-.15-.15-.35-.23-.56-.23Z"/>
  <path class="st2" d="M398.13,160.27c.25-.5.58-.93.97-1.28,9.59-8.89,19.72-16.74,30.41-23.53,15.3-9.74,46.41-24.42,55.99,1.02,2.01,5.35,2.84,10.96,2.48,16.83-.78,12.47-3.18,24.57-7.19,36.29-.23.68-.96,1.07-1.65.87-18.78-5.13-37.85-8.1-57.2-8.92-2.17-.09-3.48-.81-4.87-2.26-5.98-6.25-12.23-12.28-18.76-18.08-.27-.23-.34-.62-.18-.94Z"/>
  <path class="st2" d="M386.06,160.78c.18.31.13.7-.12.95-6.18,6.18-12.08,12.57-17.69,19.16-1.3,1.52-2.57,2.32-4.73,2.54-19.29,1.94-38.16,6.02-56.62,12.24-.68.23-1.42-.11-1.69-.77-4.7-11.47-7.8-23.42-9.31-35.84-.7-5.83-.2-11.48,1.5-16.95,8.09-25.97,40.02-13.11,55.87-4.28,11.07,6.17,21.65,13.41,31.75,21.73.41.33.76.74,1.04,1.22Z"/>
  <path class="st2" d="M392.46,165.83l15.53,14.03c.36.33.39.89.06,1.26-.17.18-.4.29-.65.29h-28.22c-.49,0-.89-.4-.89-.89,0-.22.08-.44.23-.6l12.68-14.03c.33-.36.89-.39,1.26-.06,0,0,0,0,0,0Z"/>
  <path class="st2" d="M456.99,241.27c.02.69-.31,1.61-.98,2.76-10.77,18.3-22.8,35.48-36.11,51.55-.7.84-1.71,1.37-2.8,1.47-6.12.53-13.1.91-20.93,1.14s-14.82.27-20.97.1c-1.1-.03-2.13-.5-2.88-1.3-14.24-15.25-27.27-31.68-39.1-49.31-.74-1.1-1.12-2-1.14-2.7-.02-.69.3-1.61.97-2.75,10.77-18.3,22.8-35.48,36.11-51.55.7-.84,1.71-1.37,2.8-1.47,6.12-.53,13.1-.92,20.93-1.15,7.84-.23,14.83-.27,20.97-.1,1.1.03,2.14.51,2.88,1.31,14.24,15.25,27.28,31.68,39.11,49.31.74,1.1,1.12,2,1.14,2.69ZM430.37,243.19c0-19.76-16.02-35.78-35.78-35.78h0c-19.76,0-35.78,16.02-35.78,35.78h0c0,19.76,16.02,35.78,35.78,35.78h0c19.76,0,35.78-16.02,35.78-35.78h0Z"/>
  <path class="st2" d="M461.12,233.42s-.1-.04-.24-.07h-.02c-9.65-14.12-20.81-28.49-33.49-43.12-.36-.41-.54-.8-.55-1.18-.01-.31.23-.57.54-.58.03,0,.06,0,.08,0,16.72,1.71,33.44,3.93,49.24,8.62.73.22,1.15.98.94,1.71-.01.04-.02.07-.04.1-4.39,11.49-9.58,22.93-15.59,34.3-.16.3-.53.41-.82.25-.02,0-.03-.02-.05-.03Z"/>
  <path class="st2" d="M327.48,237.57c-.26.2-.64.15-.85-.12-.01-.02-.02-.03-.03-.05-6.71-11.01-12.62-22.14-17.71-33.38-.31-.69,0-1.5.69-1.82.03-.02.07-.03.1-.04,15.53-5.66,32.13-8.91,48.76-11.64.3-.06.6.15.65.46,0,.03,0,.05,0,.08.01.38-.15.79-.48,1.22-11.8,15.42-22.1,30.48-30.89,45.19h-.01c-.14.06-.22.09-.24.1Z"/>
  <path class="st2" d="M488.56,281.03c-.47.24-1.04.05-1.28-.41,0-.02-.02-.03-.02-.05-5.96-13.28-12.81-26.01-20.56-38.2-.55-.86-.58-1.96-.08-2.86,6.88-12.16,12.74-24.92,17.58-38.28.35-.97,1.42-1.49,2.4-1.16,10.69,3.57,20.69,8.58,30.01,15.03,2.65,1.83,4.9,3.99,6.77,6.47.44.58.39,1.39-.11,1.92-5.04,5.27-7.24,11.1-4.46,18.18,1.61,4.11,4.4,6.9,8.35,8.37.89.33,1.34,1.31,1.01,2.2-.04.11-.1.22-.16.32-6.56,10.31-18.87,18.78-29.79,23.78-3.54,1.63-6.76,3.19-9.66,4.69Z"/>
  <path class="st2" d="M263.1,230.3c10.52-11.38,22.81-18.93,37.18-24.61.78-.31,1.67.05,2.01.82,5.87,13.23,12.65,25.74,20.33,37.53.4.6.43,1.38.09,2.03-7.19,13.57-13.23,26.66-18.12,39.25-.37.95-1.44,1.43-2.39,1.06-.02,0-.04-.02-.06-.02-5.7-2.43-9.41-4-11.13-4.72-9.57-4.01-17.75-9.17-25.09-16.11-1.17-1.11-2.38-2.49-3.61-4.14-.39-.52-.29-1.24.22-1.64,4.85-3.76,7.25-5.36,8.88-11.63,1.73-6.68-2.87-12.9-8.18-16.61-.37-.26-.45-.76-.2-1.13.02-.03.04-.06.07-.08Z"/>
  <circle class="st0" cx="394.59" cy="243.19" r="35.78"/>
  <path class="st2" d="M461.62,248.8c.27-.2.64-.14.84.13,0,.01.02.02.03.04,6.7,10.97,12.59,22.05,17.68,33.24.31.69,0,1.5-.7,1.81-.03.01-.06.03-.09.04-15.46,5.65-32,8.9-48.56,11.64-.3.06-.6-.15-.65-.45,0-.03,0-.06,0-.09-.01-.38.15-.78.48-1.21,11.74-15.37,21.98-30.39,30.73-45.05h.01c.14-.06.22-.09.24-.1Z"/>
  <path class="st2" d="M327.99,252.86s.1.04.25.07h.01c9.64,14.15,20.8,28.55,33.48,43.22.36.41.54.81.55,1.18.01.31-.23.57-.54.58-.03,0-.06,0-.08,0-16.74-1.73-33.48-3.98-49.3-8.69-.73-.22-1.15-.98-.94-1.71.01-.04.02-.07.04-.1,4.41-11.51,9.63-22.95,15.67-34.33.16-.29.53-.4.82-.24.01,0,.03.02.04.02Z"/>
  <path class="st2" d="M403.06,325.63c-.18-.31-.13-.7.12-.95,6.17-6.19,12.06-12.59,17.67-19.2,1.3-1.53,2.57-2.33,4.73-2.55,19.3-1.98,38.18-6.1,56.64-12.35.68-.23,1.43.1,1.7.77,4.72,11.47,7.84,23.42,9.37,35.85.71,5.84.22,11.5-1.47,16.97-8.05,26-40.03,13.19-55.91,4.38-11.09-6.15-21.69-13.39-31.81-21.7-.41-.33-.76-.74-1.04-1.22Z"/>
  <path class="st2" d="M391.07,325.88c-.25.49-.57.92-.96,1.28-9.57,8.92-19.69,16.79-30.36,23.62-15.28,9.78-46.37,24.54-56.02-.88-2.03-5.35-2.87-10.96-2.52-16.83.75-12.48,3.11-24.59,7.1-36.32.23-.69.96-1.08,1.65-.88,18.79,5.09,37.87,8.01,57.24,8.78,2.17.09,3.49.8,4.88,2.25,6,6.23,12.27,12.25,18.81,18.04.27.23.34.62.18.94Z"/>
  <path class="st2" d="M410.28,304.99c.45,0,.81.37.8.82,0,.21-.09.41-.23.56l-13.58,13.58c-.43.43-1.14.44-1.58.01-3.75-3.66-7.64-7.24-11.68-10.75-.74-.63-1.65-1.73-2.72-3.28-.19-.27-.12-.65.15-.83.1-.07.22-.11.35-.11h28.49Z"/>
  <path class="st0" d="M95.48,371.11c4.77.69,9.15,1.23,13.16,1.62,32.91,3.26,64.66,9.21,95.24,17.86,37.58,10.62,74.04,25.72,107.89,46.82,28,17.45,52.08,39,72.24,64.64,3.62,4.6,6.27,9.18,9.32,13.37.47.64,1.35.8,2.01.37.59-.38,1.2-1.06,1.82-2.05,3.85-6.15,8.35-12.29,13.51-18.44,19.58-23.29,42.58-43.05,68.99-59.26,37.4-22.95,78.11-38.75,121.02-49.44,26.01-6.48,52.22-11.13,78.63-13.94,4.65-.52,9.18-.9,13.59-1.15,4.36-.24,7.89.34,12.23,1.95,2.93,1.08,5.84,2.2,8.74,3.37l69.59,26.55c.11.04.19.15.19.26v.38c0,.25-.21.46-.46.46-.03,0-.05,0-.08,0-2.31-.43-5.05-.57-8.22-.43-12.68.57-25.22-.13-32.47.16-24.93.99-46.43,2.56-64.5,4.7-6.29.75-15.42,1.94-27.4,3.58-10.92,1.49-23.89,4.01-34.35,6.1-42.86,8.57-83.17,21.1-120.93,37.6-35.66,15.58-69.18,35.43-99.15,60.74-.85.72-2.1.72-2.95,0-33.58-28.47-72.43-50.31-113.21-66.67-34.45-13.82-69.63-24.28-105.54-31.39-6.22-1.23-12.16-2.38-17.81-3.44-14.93-2.8-22.55-3.52-40.44-5.97-10.78-1.47-21.32-2.24-33-3.21-20.4-1.71-40.6-2.4-60.6-2.09-5.31.08-10.79-.43-16.45.19-.26.02-.5-.17-.52-.44-.02-.21.1-.4.29-.48l61.01-23.25c9.71-4.62,19.24-7.64,28.61-9.06Z"/>
  <path class="st2" d="M746.13,478.44c-15.99-.27-31.97-.19-47.94.24-3.36.09-7.04.34-11.05.73-3.67.36-7.35.69-11.03.99-7.07.36-14.68.67-21.21,1.61-6.42.92-13.61,1.27-21.27,2.3-15.82,2.13-25.47,3.48-28.96,4.03-19.07,3.01-38.03,6.55-56.86,10.61-22.28,4.66-44.35,10.18-66.21,16.55-22.19,6.31-44.17,13.32-65.94,21.04-1.35.48-2.58,1.06-3.7,1.75-.17.1-.22.31-.12.48.03.05.07.09.12.12,12.29,7.47,25.9,16.6,40.85,27.38.71.51,1.7,1.47,2.97,2.88.09.11.08.27-.03.37-.07.06-.17.08-.26.04-18.94-8.23-38.06-16.06-57.37-23.49-2.85-1.1-4.96-1.31-7.67-.26-19.1,7.41-37.16,14.8-54.17,22.15-.9.39-1.92,1.62-2.32,1.73-.23.06-.46-.08-.52-.31-.01-.05-.02-.11,0-.17.26-1.91,1.66-2.52,3.09-3.56,13.11-9.57,26.35-18.46,39.73-26.68.26-.16.34-.5.18-.75-.07-.11-.17-.19-.28-.23-26.08-9.3-52.25-17.57-78.5-24.8-23.73-6.53-47.71-12.2-71.93-17.01-40.26-8.06-81.21-13.87-122.25-16.01-3.55-.17-7.07-.44-10.56-.8-3.87-.41-7.39-.62-10.54-.64-5.99-.05-11.97-.17-17.96-.37-3.95-.13-12.38.09-25.29.67-3.8-.19-7.76.73-11.14.71-1.99,0-3.97.33-5.93,1.02-.5.18-1.06-.03-1.31-.5-.76-1.38-1.38-2.78-1.85-4.19-9.81-29.27-15.99-47.84-18.55-55.72-.22-.69-.33-1.28-.34-1.78,0-.6.47-1.09,1.07-1.11,5.57-.12,9.43-.3,11.58-.55,9.42-1.08,15.55-.55,27.49-.6,7.11-.03,13.61.19,19.52.66,8.06.65,15.98.85,26.06,1.86,16.81,1.69,33.28,4.05,49.41,7.07,2.69.51,9.37,1.92,20.02,4.24,35.62,7.77,70.69,18.76,104.85,32.1,46.33,18.09,90.85,39.91,133.55,65.45.28.17.64.17.92,0,26.29-15.38,51.92-29.02,76.87-40.93,29.97-14.3,60.83-26.85,92.6-37.65,25.71-8.73,54.07-16.29,85.1-22.68,8.64-1.77,18.21-3.4,28.71-4.88,13.42-1.89,23.06-3.05,28.92-3.48,20.83-1.54,33.24-2.34,37.24-2.4,13.92-.2,26.09.12,36.5.95,3.91.32,6.79.66,8.63,1.01.39.08.65.46.57.85-.02.08-.04.15-.08.22-.41.71-.76,1.51-1.05,2.38-4.15,12.25-10.46,31.12-18.93,56.59-.72,2.17-2.03,2.28-4.19,2.01-6.38-.79-12.79-1.2-19.23-1.24Z"/>
</svg>